<svg xmlns="http://www.w3.org/2000/svg" width="56.8" height="6.479" viewBox="0 0 56.8 6.479">
  <path id="Subtraction_7" data-name="Subtraction 7" d="M.256,7.646c-.144,0-.238,0-.256,0V4.675a2.543,2.543,0,0,1,.461.286c.253.188.42.313,1.219.313h.006A6.271,6.271,0,0,0,5.679,3.946l.012-.008a8.567,8.567,0,0,1,5.27-1.7H11a8.51,8.51,0,0,1,5.235,1.69l.007,0a6.338,6.338,0,0,0,3.988,1.313h.009a6.31,6.31,0,0,0,3.983-1.322l.01-.006A8.51,8.51,0,0,1,29.513,2.2h.028a8.537,8.537,0,0,1,5.251,1.693l.01.007a6.341,6.341,0,0,0,3.985,1.308h.009A6.294,6.294,0,0,0,42.765,3.9l.016-.011.009-.006a8.614,8.614,0,0,1,5.274-1.713h.008a8.572,8.572,0,0,1,5.28,1.7l.024.016A7.118,7.118,0,0,0,55.8,5.028v2.4a8.845,8.845,0,0,1-3.721-1.574l-.013-.009a6.338,6.338,0,0,0-3.988-1.313h-.009A6.309,6.309,0,0,0,44.09,5.852l-.014.009A8.536,8.536,0,0,1,38.8,7.576a8.6,8.6,0,0,1-5.285-1.695l-.015-.01A6.3,6.3,0,0,0,29.53,4.564h-.009a6.331,6.331,0,0,0-3.976,1.318l-.016.011-.01.007A8.62,8.62,0,0,1,20.246,7.61h-.008a8.58,8.58,0,0,1-5.281-1.7A6.287,6.287,0,0,0,10.97,4.594,6.335,6.335,0,0,0,6.989,5.911l-.016.011A8.532,8.532,0,0,1,1.69,7.641H1.6l-.483,0H.732Z" transform="translate(0.5 -1.666)" fill="#ffaa4d" stroke="#ffaa4d" stroke-miterlimit="10" stroke-width="1"/>
</svg>
